<svg xmlns="http://www.w3.org/2000/svg" viewBox="0 0 256 256" role="img" aria-label="MuxMelt logo">
  <defs>
    <linearGradient id="bg" x1="18" y1="12" x2="238" y2="244" gradientUnits="userSpaceOnUse">
      <stop offset="0" stop-color="#15252d"/>
      <stop offset="0.56" stop-color="#101820"/>
      <stop offset="1" stop-color="#0b1117"/>
    </linearGradient>
    <linearGradient id="coral" x1="42" y1="70" x2="130" y2="186" gradientUnits="userSpaceOnUse">
      <stop offset="0" stop-color="#ff8a64"/>
      <stop offset="0.5" stop-color="#ff5b55"/>
      <stop offset="1" stop-color="#d94fda"/>
    </linearGradient>
    <linearGradient id="mint" x1="92" y1="72" x2="202" y2="184" gradientUnits="userSpaceOnUse">
      <stop offset="0" stop-color="#77ead0"/>
      <stop offset="0.52" stop-color="#55d6be"/>
      <stop offset="1" stop-color="#7168ff"/>
    </linearGradient>
    <linearGradient id="pool" x1="50" y1="196" x2="206" y2="196" gradientUnits="userSpaceOnUse">
      <stop offset="0" stop-color="#ff6954"/>
      <stop offset="0.48" stop-color="#d94fda"/>
      <stop offset="1" stop-color="#55d6be"/>
    </linearGradient>
    <filter id="shadow" x="-30%" y="-25%" width="160%" height="160%">
      <feDropShadow dx="0" dy="16" stdDeviation="12" flood-color="#000" flood-opacity="0.38"/>
    </filter>
    <filter id="soft-glow" x="-60%" y="-60%" width="220%" height="220%">
      <feGaussianBlur stdDeviation="7" result="blur"/>
      <feMerge>
        <feMergeNode in="blur"/>
        <feMergeNode in="SourceGraphic"/>
      </feMerge>
    </filter>
  </defs>

  <rect width="256" height="256" rx="52" fill="url(#bg)"/>
  <path d="M38 184c20-18 41-14 63-2 20 11 39 13 58 1 23-14 44-14 59 2" fill="none" stroke="#223742" stroke-width="16" stroke-linecap="round" opacity="0.58"/>

  <g filter="url(#shadow)">
    <path d="M54 178V78l36 54 38-58v104" fill="none" stroke="#4c2f49" stroke-width="31" stroke-linecap="round" stroke-linejoin="round" opacity="0.42"/>
    <path d="M94 178V78l38 56 36-56v100" fill="none" stroke="#203f4a" stroke-width="31" stroke-linecap="round" stroke-linejoin="round" opacity="0.48"/>

    <path d="M54 178V78l36 54 38-58" fill="none" stroke="url(#coral)" stroke-width="23" stroke-linecap="round" stroke-linejoin="round"/>
    <path d="M128 74v104" fill="none" stroke="url(#coral)" stroke-width="23" stroke-linecap="round" stroke-linejoin="round"/>

    <path d="M94 178V78l38 56" fill="none" stroke="url(#mint)" stroke-width="23" stroke-linecap="round" stroke-linejoin="round"/>
    <path d="M132 134l36-56v100" fill="none" stroke="url(#mint)" stroke-width="23" stroke-linecap="round" stroke-linejoin="round"/>

    <path d="M86 126l8 12" fill="none" stroke="#ffd0c7" stroke-width="24" stroke-linecap="round" opacity="0.9"/>
    <path d="M126 124l10 15" fill="none" stroke="#c8fff4" stroke-width="24" stroke-linecap="round" opacity="0.9"/>
  </g>

  <g filter="url(#soft-glow)">
    <path d="M84 194c15 8 32 8 50 0 17-8 31-7 43 0 10 6 19 8 29 4" fill="none" stroke="url(#pool)" stroke-width="10" stroke-linecap="round" opacity="0.92"/>
    <circle cx="126" cy="204" r="6" fill="#ff6954"/>
    <circle cx="165" cy="205" r="5" fill="#55d6be"/>
  </g>

  <path d="M206 44c10 14 3 28-10 35 4-12-2-17-9-24-7-8-6-19 5-29 0 10 7 13 14 18z" fill="#ffb454" opacity="0.95"/>
  <path d="M204 53c4 8 0 16-7 20 1-7-4-10-7-14-4-5-2-10 3-15 1 5 7 6 11 9z" fill="#fff0a8" opacity="0.9"/>
</svg>
